name C:\Users\u0101727\Documents\MyRepositories\upper-imu-dc\Results\main_tracking\Case_10\FLX01_linearAccelerations_bodyFrame.mot
datacolumns 4
datarows 58
range 5.01000000 5.58000000
endheader 
time	radius_imu_x	radius_imu_y	radius_imu_z	
          5.01000000	         -2.07199567	          3.55219561	         10.09055449	
          5.02000000	         -1.90545792	          3.62015501	         10.14495614	
          5.03000000	         -1.78290700	          3.65973303	         10.18324100	
          5.04000000	         -1.76573175	          3.68007347	         10.19123632	
          5.05000000	         -1.88062475	          3.70050135	         10.16099747	
          5.06000000	         -2.10181608	          3.74379086	         10.09463718	
          5.07000000	         -2.36035807	          3.82586967	         10.00236799	
          5.08000000	         -2.57453679	          3.94758639	          9.89640596	
          5.09000000	         -2.68421505	          4.09342308	          9.78513694	
          5.10000000	         -2.66880968	          4.23817374	          9.67123399	
          5.11000000	         -2.54101050	          4.35845736	          9.55394496	
          5.12000000	         -2.32363758	          4.44363928	          9.43325293	
          5.13000000	         -2.03004901	          4.50080697	          9.31269019	
          5.14000000	         -1.66753795	          4.55092897	          9.19841899	
          5.15000000	         -1.25781415	          4.61799490	          9.09556690	
          5.16000000	         -0.84745780	          4.71718820	          9.00572891	
          5.17000000	         -0.49034293	          4.84826240	          8.92855452	
          5.18000000	         -0.21393140	          4.99669680	          8.86586253	
          5.19000000	          0.00067847	          5.14164643	          8.82367488	
          5.20000000	          0.21071898	          5.26702955	          8.81022227	
          5.21000000	          0.48604936	          5.37006343	          8.83245227	
          5.22000000	          0.88050464	          5.46281809	          8.89377112	
          5.23000000	          1.40786747	          5.56683690	          8.99284884	
          5.24000000	          2.02759250	          5.70426668	          9.12197756	
          5.25000000	          2.64870557	          5.88981237	          9.26544767	
          5.26000000	          3.15645093	          6.12645948	          9.40061574	
          5.27000000	          3.45059138	          6.40610524	          9.50290188	
          5.28000000	          3.47294998	          6.71308329	          9.55173563	
          5.29000000	          3.21659297	          7.02984241	          9.53410130	
          5.30000000	          2.71834308	          7.34296423	          9.44393818	
          5.31000000	          2.03964804	          7.64642727	          9.27885258	
          5.32000000	          1.24467449	          7.94020030	          9.03735467	
          5.33000000	          0.38421574	          8.22546098	          8.71873446	
          5.34000000	         -0.51121358	          8.49972980	          8.32505477	
          5.35000000	         -1.42967053	          8.75471034	          7.86329505	
          5.36000000	         -2.37134857	          8.97743625	          7.34591538	
          5.37000000	         -3.34205116	          9.15330232	          6.78943910	
          5.38000000	         -4.34831511	          9.26928946	          6.21186802	
          5.39000000	         -5.39440352	          9.31665530	          5.62987153	
          5.40000000	         -6.48116896	          9.29295717	          5.05650206	
          5.41000000	         -7.60550939	          9.20383722	          4.49955243	
          5.42000000	         -8.75742773	          9.06387244	          3.96183214	
          5.43000000	         -9.91532495	          8.89650604	          3.44189184	
          5.44000000	        -11.04296042	          8.73097774	          2.93653409	
          5.45000000	        -12.08968396	          8.59445942	          2.44016477	
          5.46000000	        -12.99288712	          8.51413168	          1.95402405	
          5.47000000	        -13.69006761	          8.49325258	          1.46518015	
          5.48000000	        -14.15740939	          8.49767490	          1.06291254	
          5.49000000	        -14.36007586	          8.56805147	          0.59297850	
          5.50000000	        -14.24725223	          8.57854473	          0.10874593	
          5.51000000	        -14.14496274	          8.66106530	         -0.09048643	
          5.52000000	        -13.69133192	          8.92216656	         -0.44315049	
          5.53000000	        -12.79002717	          9.00330712	         -0.49080542	
          5.54000000	        -11.96542115	          9.28838118	         -0.51663031	
          5.55000000	        -10.90832568	          9.54444048	         -0.22395466	
          5.56000000	         -9.54637701	          9.80870278	          0.19709830	
          5.57000000	         -8.07115886	         10.11060154	          0.70325618	
          5.58000000	         -6.59453989	         10.40798917	          1.23282467	
